<?xml version="1.0" standalone="no"?>
<!DOCTYPE svg PUBLIC "-//W3C//DTD SVG 20010904//EN"
 "http://www.w3.org/TR/2001/REC-SVG-20010904/DTD/svg10.dtd">
<svg version="1.0" xmlns="http://www.w3.org/2000/svg"
 width="300.000000pt" height="300.000000pt" viewBox="0 0 300.000000 300.000000"
 preserveAspectRatio="xMidYMid meet">
<metadata>
Created by potrace 1.14, written by Peter Selinger 2001-2017
</metadata>
<g transform="translate(0.000000,300.000000) scale(0.100000,-0.100000)"
fill="#000000" stroke="none">
<path d="M2 2608 c1 -216 4 -346 7 -288 6 97 8 105 26 104 39 -2 46 -4 41 -12
-6 -9 5 -11 79 -13 28 -1 40 -3 28 -6 -12 -2 -27 -11 -33 -19 -11 -12 -6 -13
34 -8 40 6 46 4 47 -12 0 -17 1 -17 7 -2 7 16 10 16 36 3 20 -11 32 -12 41 -5
9 8 15 7 19 -2 5 -11 7 -11 12 0 4 10 9 10 19 2 8 -6 38 -13 67 -14 80 -5 86
-6 63 -16 -19 -8 -19 -9 2 -9 12 -1 27 -9 32 -18 10 -17 10 -17 11 0 0 18 44
25 54 8 7 -11 -22 -23 -37 -14 -6 3 -2 -5 9 -19 15 -21 23 -24 38 -16 10 6 21
6 25 2 3 -5 22 -9 43 -9 20 0 34 -3 31 -8 -7 -11 8 -51 16 -41 16 23 52 34 72
24 11 -6 28 -9 37 -7 12 3 10 5 -6 6 -47 2 -9 21 41 20 29 0 45 -3 37 -6 -46
-18 -24 -46 30 -37 34 6 34 6 15 -10 -20 -17 -19 -17 4 -6 13 7 38 9 57 5 21
-3 34 -2 34 5 0 5 11 10 25 10 17 0 25 6 26 18 0 13 2 14 6 2 10 -25 23 -28
126 -36 72 -5 100 -11 104 -21 4 -11 8 -12 13 -3 5 8 16 9 31 5 22 -7 22 -8 4
-21 -10 -8 -14 -14 -8 -14 6 0 16 7 23 15 11 14 15 14 29 1 11 -10 21 -12 31
-6 22 14 91 11 125 -5 l30 -15 -42 3 c-43 3 -56 -6 -27 -17 9 -3 31 -6 50 -6
25 0 34 4 34 16 0 11 5 14 18 9 37 -14 114 -18 122 -6 5 10 9 9 13 -3 5 -12
-1 -18 -23 -23 -37 -7 -29 -23 11 -23 18 0 28 4 24 10 -4 6 7 10 24 10 21 0
31 -5 31 -15 0 -8 9 -15 21 -15 11 0 17 5 14 10 -7 12 19 13 55 3 24 -7 23 -8
-10 -14 -34 -6 -33 -6 12 -8 25 0 48 -5 50 -9 2 -5 19 -12 38 -15 25 -5 31 -4
20 3 -12 8 -9 10 13 10 15 0 27 -4 27 -10 0 -5 19 -10 43 -11 37 -1 39 -2 17
-10 -19 -7 -15 -8 18 -4 30 4 41 2 40 -7 -2 -6 6 -13 17 -15 16 -3 17 -2 5 6
-13 9 -13 11 3 11 9 0 17 4 17 10 0 5 8 6 17 3 15 -6 15 -7 -3 -14 -17 -7 -17
-8 4 -8 13 -1 22 -7 22 -16 0 -8 5 -15 11 -15 5 0 8 4 4 9 -3 6 4 15 15 21 18
10 19 9 10 -14 -9 -26 3 -46 15 -26 4 7 11 7 18 2 7 -5 26 -12 42 -16 21 -5
26 -4 15 3 -8 6 -12 13 -8 16 9 9 59 -6 52 -16 -3 -5 9 -9 25 -9 17 0 31 -5
31 -11 0 -6 9 -9 20 -6 11 3 20 1 20 -4 0 -5 7 -9 15 -9 8 0 15 5 15 10 0 6 7
10 15 10 8 0 14 -6 13 -12 -2 -7 5 -12 15 -10 10 2 17 -3 17 -13 0 -11 6 -14
25 -9 16 4 25 2 25 -6 0 -8 9 -10 25 -6 17 4 25 2 25 -6 0 -8 16 -14 43 -15
64 -4 82 -9 79 -23 -2 -8 5 -10 22 -6 14 3 26 1 28 -5 3 -9 10 -8 25 1 12 8
28 10 39 5 17 -7 17 -8 -6 -15 -24 -8 -24 -11 3 -14 8 -1 14 -29 18 -86 3 -47
6 227 7 608 l2 692 -1500 0 -1500 0 2 -392z m71 -155 c-7 -2 -19 -2 -25 0 -7
3 -2 5 12 5 14 0 19 -2 13 -5z m64 -29 c-3 -3 -12 -4 -19 -1 -8 3 -5 6 6 6 11
1 17 -2 13 -5z m416 -101 c-7 -2 -19 -2 -25 0 -7 3 -2 5 12 5 14 0 19 -2 13
-5z m200 -80 c-7 -2 -19 -2 -25 0 -7 3 -2 5 12 5 14 0 19 -2 13 -5z m417 -33
c0 -5 -11 -10 -25 -10 -14 0 -25 5 -25 10 0 6 11 10 25 10 14 0 25 -4 25 -10z
m180 -14 c0 -3 -4 -8 -10 -11 -5 -3 -10 -1 -10 4 0 6 5 11 10 11 6 0 10 -2 10
-4z m247 -42 c-3 -3 -12 -4 -19 -1 -8 3 -5 6 6 6 11 1 17 -2 13 -5z m243 -39
c0 -8 -9 -15 -19 -15 -29 0 -35 18 -9 23 13 2 24 5 26 6 1 0 2 -6 2 -14z"/>
<path d="M288 2313 c7 -3 16 -2 19 1 4 3 -2 6 -13 5 -11 0 -14 -3 -6 -6z"/>
<path d="M348 2313 c7 -3 16 -2 19 1 4 3 -2 6 -13 5 -11 0 -14 -3 -6 -6z"/>
<path d="M1128 2163 c7 -3 16 -2 19 1 4 3 -2 6 -13 5 -11 0 -14 -3 -6 -6z"/>
<path d="M1465 2130 c3 -5 13 -10 21 -10 8 0 14 5 14 10 0 6 -9 10 -21 10 -11
0 -17 -4 -14 -10z"/>
<path d="M1863 939 c4 -14 19 -54 35 -89 l27 -62 25 66 c14 36 28 62 32 58 3
-4 17 -34 31 -66 l24 -59 32 81 c34 89 36 96 21 87 -5 -3 -20 -29 -32 -57
l-21 -50 -27 58 -26 59 -17 -25 c-9 -14 -22 -41 -28 -59 -13 -37 -21 -32 -38
21 -7 20 -19 42 -28 50 -14 11 -16 10 -10 -13z"/>
<path d="M2197 953 c-11 -11 -8 -163 3 -163 6 0 10 35 10 85 0 85 -1 91 -13
78z"/>
<path d="M2314 947 c-3 -8 -4 -45 -2 -83 l3 -69 48 -3 c28 -2 47 1 47 7 0 6
-16 11 -35 11 l-35 0 0 69 c0 65 -13 100 -26 68z"/>
<path d="M2500 877 l0 -87 44 0 c55 0 70 18 19 22 l-38 3 -3 65 c-5 101 -22
99 -22 -3z"/>
<path d="M410 590 c0 -47 4 -80 10 -80 6 0 10 16 10 35 0 35 0 35 44 35 44 0
45 0 48 -37 5 -68 23 -35 23 42 0 75 -17 110 -23 48 -3 -32 -5 -33 -48 -33
-44 0 -44 0 -44 35 0 19 -4 35 -10 35 -6 0 -10 -33 -10 -80z"/>
<path d="M669 641 c-35 -36 -37 -70 -5 -108 19 -22 32 -28 65 -28 54 0 83 28
83 81 0 78 -86 111 -143 55z m99 -7 c46 -32 20 -107 -37 -107 -39 0 -63 22
-63 57 0 55 54 83 100 50z"/>
<path d="M910 590 l0 -80 50 0 c28 0 50 5 50 10 0 6 -18 10 -40 10 l-40 0 0
70 c0 40 -4 70 -10 70 -6 0 -10 -33 -10 -80z"/>
<path d="M1100 591 l0 -81 50 0 c70 0 97 28 90 95 -3 35 -35 57 -89 63 l-51 5
0 -82z m98 43 c47 -33 17 -104 -45 -104 l-33 0 0 60 c0 59 0 60 28 60 15 0 38
-7 50 -16z"/>
<path d="M1346 654 c-24 -24 -19 -40 19 -70 19 -14 35 -33 35 -41 0 -19 -29
-28 -43 -14 -14 14 -27 14 -27 1 0 -19 46 -33 69 -21 33 18 27 55 -16 88 -42
34 -38 59 8 49 30 -6 40 8 13 18 -25 10 -42 7 -58 -10z"/>
<path d="M1472 659 c38 -96 62 -147 68 -144 4 2 15 26 25 52 10 26 21 52 25
56 4 4 17 -19 31 -53 13 -33 26 -60 29 -60 9 0 63 150 57 157 -4 3 -18 -20
-33 -53 l-26 -58 -21 54 c-12 29 -27 55 -33 57 -6 2 -19 -18 -29 -44 -10 -26
-21 -52 -25 -56 -4 -4 -16 15 -26 44 -10 29 -25 55 -33 57 -9 3 -12 0 -9 -9z"/>
<path d="M1825 645 c-41 -40 -33 -105 17 -131 56 -29 128 13 128 75 -1 70 -95
107 -145 56z m104 -21 c27 -35 26 -49 -5 -80 -19 -20 -31 -24 -52 -19 -52 12
-69 68 -32 105 28 28 64 25 89 -6z"/>
<path d="M2070 584 c0 -54 4 -83 10 -79 6 3 10 22 10 41 0 19 4 34 9 34 5 0
24 -18 41 -40 39 -49 61 -43 24 6 -21 26 -24 38 -16 46 30 30 0 78 -49 78
l-29 0 0 -86z m60 51 c15 -18 5 -35 -21 -35 -14 0 -19 7 -19 25 0 28 21 33 40
10z"/>
<path d="M2230 660 c0 -5 14 -10 30 -10 l30 0 0 -70 c0 -40 4 -70 10 -70 6 0
10 30 10 70 l0 70 30 0 c17 0 30 5 30 10 0 6 -30 10 -70 10 -40 0 -70 -4 -70
-10z"/>
<path d="M2460 584 c0 -54 4 -83 10 -79 6 3 10 22 10 41 0 34 0 34 44 34 44 0
45 0 48 -37 5 -67 21 -40 22 37 1 74 -16 115 -22 53 -3 -32 -5 -33 -48 -33
-44 0 -44 0 -44 35 0 19 -4 35 -10 35 -6 0 -10 -35 -10 -86z"/>
</g>
</svg>
